M48
;Layer_Color=9474304
;FILE_FORMAT=2:4
INCH,LZ
;TYPE=PLATED
T1F00S00C0.0256
T2F00S00C0.0276
T3F00S00C0.0280
T4F00S00C0.0354
T5F00S00C0.0390
T6F00S00C0.0394
T7F00S00C0.0402
T8F00S00C0.0571
%
T01
X05285Y006516
Y008484
X01135Y030566
Y032534
X06125Y027534
Y025566
T02
X0115Y021932
Y0239
X0114Y026381
Y02835
X00885Y031266
Y033234
X0169Y02665
Y025689
Y024729
T03
X0567Y0162
X05565Y01995
X03655Y01865
X0212Y0199
X01805Y01985
X00375Y0297
X00225Y02975
X0143Y0252
X020047Y029403
X0136Y03665
X0217Y0332
X0233Y03305
X02375Y0299
X0238Y02865
X0223Y02645
X0286Y02815
X02895Y030005
X032Y0243
X03665Y0254
X03675Y0271
X02605Y04665
X02035Y04195
X0115Y0439
X0111Y037
T04
X02235Y00185
Y00285
Y00385
Y00485
X02535
Y00385
Y00285
Y00185
Y00585
Y00685
Y00785
Y00885
Y00985
Y01085
Y01185
Y01285
Y01385
Y01485
X02235
Y01385
Y01285
Y01185
Y01085
Y00985
Y00885
Y00785
Y00685
Y00585
X0246Y02285
Y02385
Y02485
Y02585
Y02685
Y02785
Y02885
Y02985
Y03085
Y03185
Y03285
Y03385
Y03485
Y03585
X0276
Y03485
Y03385
Y03285
Y03185
Y03085
Y02985
Y02885
Y02785
Y02685
Y02585
Y02485
Y02385
Y02285
T05
X01447Y041714
Y043486
X01703
Y041714
T06
X0608Y032416
Y0334
Y034384
T07
X01415Y00365
X0169Y0047
X0177Y0026
X02005Y0018
X0279Y001
X0278Y0028
X02805Y0051
X053Y0137
Y0147
Y0157
X04805Y0102
X0484Y0081
X0413Y0082
X0406Y0101
X0289Y01105
X02765Y00995
X02775Y0079
X0279Y0065
X02Y0079
X01965Y0121
X0189Y01495
X0166Y0114
X01665Y0095
X017Y00585
X01395Y00665
X0047Y02775
Y02875
Y02975
Y0325
Y0335
X0061Y0314
X0057Y02975
Y02875
Y02775
X0226Y028
X0216Y02295
X0301Y02255
X02975Y0241
X0294Y0308
X03055Y03225
X03205Y03345
X0343Y0365
X044Y02895
X05705Y03905
Y04005
Y04105
X0343Y0375
X01915Y0448
Y0458
X0058Y04295
T08
X038467Y02372
Y025373
Y027027
Y02868
X040633
Y027027
Y025373
Y02372
M30
