G04*
G04 #@! TF.GenerationSoftware,Altium Limited,Altium Designer,21.4.1 (30)*
G04*
G04 Layer_Physical_Order=1*
G04 Layer_Color=255*
%FSLAX25Y25*%
%MOIN*%
G70*
G04*
G04 #@! TF.SameCoordinates,DDA1B4C3-BA79-4B98-AE68-5F17814B577F*
G04*
G04*
G04 #@! TF.FilePolarity,Positive*
G04*
G01*
G75*
%ADD14C,0.01000*%
%ADD15R,0.04750X0.05938*%
%ADD17R,0.04528X0.04528*%
%ADD18C,0.04528*%
%ADD19C,0.06181*%
%ADD20R,0.06063X0.06063*%
%ADD21C,0.06063*%
%ADD31R,0.04724X0.04724*%
%ADD32C,0.04724*%
%ADD34R,0.14488X0.05000*%
%ADD35R,0.05906X0.05906*%
%ADD36C,0.05906*%
%ADD37R,0.06102X0.06102*%
%ADD38C,0.06102*%
%ADD39C,0.07677*%
%ADD40R,0.07677X0.07677*%
%ADD41R,0.05906X0.05906*%
%ADD42C,0.05000*%
D14*
X111000Y369343D02*
X113500Y366843D01*
X111000Y369343D02*
Y370000D01*
X113500Y325342D02*
Y366843D01*
X104201Y394000D02*
X212500D01*
X68701Y429500D02*
X104201Y394000D01*
X58000Y429500D02*
X68701D01*
X89606Y428031D02*
X100496Y417142D01*
X87137Y429906D02*
X89012Y428031D01*
X89606D01*
X100496Y417142D02*
X144705D01*
X140563Y439000D02*
X144705Y434858D01*
X115000Y439000D02*
X140563D01*
X90500Y218172D02*
Y255052D01*
X162079Y263815D02*
X169000Y256894D01*
X94500Y217000D02*
Y236500D01*
X61501Y284051D02*
X90500Y255052D01*
Y218172D02*
X95172Y213500D01*
X114000Y263815D02*
X162079D01*
X94500Y236500D02*
X114000Y256000D01*
X252000Y458000D02*
X260500Y466500D01*
X191500Y458000D02*
X252000D01*
X170295Y417142D02*
X200201D01*
X202560Y419500D01*
X203500D01*
X213086Y394414D02*
Y429914D01*
X212500Y394000D02*
X212586Y393914D01*
X208142Y434858D02*
X213086Y429914D01*
X212586Y393914D02*
X213086Y394414D01*
X174362Y436858D02*
X181095Y443591D01*
Y445818D01*
X187828Y452551D02*
X189646D01*
X181095Y445818D02*
X187828Y452551D01*
X191500Y448000D02*
X196500Y443000D01*
X231414D01*
X147894Y256894D02*
X169000D01*
X143000Y252000D02*
X147894Y256894D01*
X115850Y307500D02*
X160843D01*
X115771Y307421D02*
X115850Y307500D01*
X113500Y305658D02*
X115264Y307421D01*
X160843Y307500D02*
X205843Y352500D01*
X115264Y307421D02*
X115771D01*
X114000Y283500D02*
X152000D01*
X169000Y266500D01*
X145000Y375500D02*
X221000D01*
X136000Y366500D02*
X145000Y375500D01*
X221000D02*
X232000Y386500D01*
Y442414D01*
X231414Y443000D02*
X232000Y442414D01*
X44000Y360500D02*
X65086Y339414D01*
X51500Y325000D02*
X65086Y338586D01*
Y339414D01*
X31500Y309500D02*
X42449Y320449D01*
X55300D02*
X59851Y325000D01*
X42449Y320449D02*
X55300D01*
X170295Y434858D02*
X208142D01*
X87137Y429906D02*
Y430500D01*
X59851Y325000D02*
X81157D01*
X47000D02*
X51500D01*
X44000Y448414D02*
X44586Y449000D01*
X44000Y360500D02*
Y448414D01*
X44586Y449000D02*
X60363D01*
X78863Y430500D02*
Y431094D01*
X76988Y432969D02*
X78863Y431094D01*
X76394Y432969D02*
X76988D01*
X60363Y449000D02*
X76394Y432969D01*
X288926Y268500D02*
X290926Y270500D01*
X308172D01*
X310172Y268500D01*
X367866Y270634D02*
X384307D01*
X367500Y271000D02*
X367866Y270634D01*
X384307D02*
X384673Y270268D01*
X293894Y275606D02*
X386884D01*
X286000Y283500D02*
X293894Y275606D01*
X386884D02*
X395967Y266524D01*
X239547Y304953D02*
X245750Y298750D01*
X237750D02*
X245750D01*
X237500Y299000D02*
X237750Y298750D01*
X245750D02*
X246000Y298500D01*
X169000Y256894D02*
X205059Y292953D01*
X246750D01*
X250453Y296656D01*
X226000Y280000D02*
X226750Y279250D01*
X245250D01*
X246000Y278500D01*
X238000Y286672D02*
X240414Y289086D01*
X238000Y286500D02*
Y286672D01*
X240414Y289086D02*
X241000Y288500D01*
X246000D01*
X250453Y296656D02*
Y300344D01*
X276500Y288500D02*
X313218D01*
X276000D02*
X276500D01*
X280836Y284164D01*
Y283336D02*
Y284164D01*
X276000Y278500D02*
X280836Y283336D01*
X31500Y272586D02*
X34586Y269500D01*
X37500Y297000D02*
X37750Y297250D01*
X46750D01*
X47000Y297500D01*
X52449Y292949D02*
X57000Y297500D01*
X39612Y304769D02*
X42449D01*
X33500Y298657D02*
X39612Y304769D01*
X33500Y295343D02*
X35894Y292949D01*
X31500Y272586D02*
Y309500D01*
X35894Y292949D02*
X52449D01*
X33500Y295343D02*
Y298657D01*
X42449Y304769D02*
X58270Y320590D01*
X47000Y297500D02*
Y306492D01*
X59099Y318590D01*
X58270Y320590D02*
X87413D01*
X34586Y269500D02*
X45500D01*
X22500Y297500D02*
Y315000D01*
X28000Y320500D01*
X32500D01*
X47000Y335000D01*
X276000Y348500D02*
X326500D01*
X343000Y365000D01*
X276000Y358500D02*
X326500D01*
X343000Y375000D01*
X567000Y162000D02*
X578414D01*
X530000Y118068D02*
Y137000D01*
X524035Y112102D02*
X530000Y118068D01*
X524035Y101807D02*
Y112102D01*
X253500Y138500D02*
X397512D01*
X420512Y115500D01*
X444000Y121500D02*
X459500Y137000D01*
X400390Y148500D02*
X431390Y117500D01*
X420512Y115500D02*
X447121D01*
X431390Y117500D02*
X438913D01*
X439256Y121500D02*
X444000D01*
X253500Y148500D02*
X400390D01*
X459500Y137000D02*
X530000D01*
X534551Y82743D02*
Y142449D01*
X453573Y61072D02*
X465488D01*
X530000Y147000D02*
X534551Y142449D01*
X526218Y74410D02*
X534551Y82743D01*
X524240Y152000D02*
X528564D01*
X529012Y152449D01*
X525449Y148885D02*
X528564Y152000D01*
X529012Y152449D02*
X546231D01*
X627914Y217500D02*
X628500Y218086D01*
X611282Y217500D02*
X627914D01*
X612500Y255658D02*
X628500Y239657D01*
Y218086D02*
Y239657D01*
X525449Y145115D02*
X527449Y143115D01*
X525449Y145115D02*
Y148885D01*
X546231Y152449D02*
X611282Y217500D01*
X553000Y186500D02*
X556500Y190000D01*
Y199500D01*
X276469Y301500D02*
X281922Y296047D01*
X553000Y180000D02*
Y186500D01*
X524035Y101807D02*
X532264Y93578D01*
X464609Y117500D02*
X467488Y114621D01*
X491843Y121500D02*
X528500Y84842D01*
X532264Y83284D02*
Y93578D01*
X485658Y74410D02*
X526218D01*
X484830Y76410D02*
X525390D01*
X532264Y83284D01*
X438913Y117500D02*
X464609D01*
X469577Y58328D02*
X485658Y74410D01*
X530000Y157000D02*
X553000Y180000D01*
X475234Y201007D02*
X524240Y152000D01*
X467577Y59157D02*
X484830Y76410D01*
X458744Y71500D02*
X463488D01*
X468398Y76410D01*
X484830D01*
X578414Y162000D02*
X584500Y155914D01*
Y121158D02*
Y155914D01*
X528500Y65158D02*
X584500Y121158D01*
X527449Y139551D02*
Y143115D01*
Y139551D02*
X530000Y137000D01*
X390012Y289015D02*
X400251Y278775D01*
X382979Y296047D02*
X390012Y289015D01*
X259000Y301500D02*
X276469D01*
X246000Y288500D02*
X259000Y301500D01*
X400251Y268793D02*
X468038Y201007D01*
X475234D01*
X281922Y296047D02*
X382979D01*
X400251Y268793D02*
Y278775D01*
X400988Y231858D02*
X406327Y237197D01*
X365071Y239000D02*
X368021Y241950D01*
X379920D01*
X384673Y237197D01*
X366732Y253732D02*
X384673D01*
X395967Y264092D02*
X406327Y253732D01*
X395967Y264092D02*
Y266524D01*
X276000Y268500D02*
X288926D01*
X303806D02*
X305806Y266500D01*
X291754Y268500D02*
X303806D01*
X302977Y266500D02*
X305227Y264250D01*
X294000Y266500D02*
X302977D01*
X286207Y262953D02*
X291754Y268500D01*
X286000Y258500D02*
X294000Y266500D01*
X305227Y264250D02*
X310250D01*
X310172Y268500D02*
X323672D01*
X305806Y266500D02*
X317574D01*
X261000Y249797D02*
X274156Y262953D01*
X351000Y201000D02*
Y223500D01*
X323672Y268500D02*
X353172Y239000D01*
X317574Y266500D02*
X352216Y231858D01*
X310250Y264250D02*
X351000Y223500D01*
X352216Y231858D02*
X400988D01*
X274156Y262953D02*
X286207D01*
X246750Y242953D02*
X263000Y259203D01*
Y298914D01*
X271296Y294047D02*
X310499D01*
X265843Y299500D02*
X271296Y294047D01*
X263000Y298914D02*
X263586Y299500D01*
X265843D01*
X247297Y303500D02*
X250453Y300344D01*
X241547Y306656D02*
X244703Y303500D01*
X247297D01*
X219219Y304953D02*
X239547D01*
X191000Y333172D02*
X219219Y304953D01*
X296492Y248500D02*
X313078Y231914D01*
X302902Y220910D02*
X313078Y231086D01*
Y231914D01*
X570500Y410500D02*
X579914D01*
X581000Y394000D02*
Y409414D01*
X579914Y410500D02*
X581000Y409414D01*
X583086Y391086D02*
Y391914D01*
X570500Y390500D02*
X582500D01*
X583086Y391086D01*
X581000Y394000D02*
X583086Y391914D01*
X351000Y201000D02*
X365500Y186500D01*
X353172Y239000D02*
X365071D01*
X286000Y258500D02*
X291328D01*
X280500Y253000D02*
X305914D01*
X306500Y250000D02*
Y252414D01*
X305914Y253000D02*
X306500Y252414D01*
X276000Y248500D02*
X280500Y253000D01*
X306500Y250000D02*
X313500Y243000D01*
X320000D01*
X313218Y288500D02*
X320254Y281465D01*
X310499Y294047D02*
X317743Y286803D01*
X320254Y281465D02*
X386884D01*
X317743Y286803D02*
X384673D01*
X244156Y234047D02*
X247844D01*
X241547Y236656D02*
X244156Y234047D01*
X241547Y236656D02*
Y244047D01*
X276000Y258500D02*
X286000D01*
X261000Y247203D02*
Y249797D01*
X247844Y234047D02*
X261000Y247203D01*
X276000Y248500D02*
X296492D01*
X83500Y222343D02*
X94343Y211500D01*
X83500Y222343D02*
Y259224D01*
X52449Y282051D02*
X60672D01*
X265297Y211500D02*
X279297Y225500D01*
X94343Y211500D02*
X265297D01*
X60672Y282051D02*
X83500Y259224D01*
X279297Y225500D02*
X291328D01*
X284500Y223500D02*
X290500D01*
X82086Y208500D02*
X269500D01*
X284500Y223500D01*
X246000Y238500D02*
X246750Y239250D01*
Y242953D01*
X266953Y304047D02*
X276750D01*
X280750Y300047D01*
X289500D01*
X262500Y308500D02*
X266953Y304047D01*
X269703Y318500D02*
X275250Y312953D01*
X246000Y318500D02*
X269703D01*
X246000Y308500D02*
X262500D01*
X316000Y252000D02*
X316657D01*
X324000Y244657D01*
X315414Y211000D02*
X324000Y219586D01*
Y244657D01*
X307414Y260586D02*
X316000Y252000D01*
X303000Y211000D02*
X315414D01*
X293414Y260586D02*
X307414D01*
X291328Y258500D02*
X293414Y260586D01*
X237008Y326500D02*
X239008Y328500D01*
X229172Y326500D02*
X237008D01*
X239008Y328500D02*
X246000D01*
X226000Y329672D02*
X229172Y326500D01*
X226000Y329672D02*
Y331328D01*
X231000Y199000D02*
X235000Y203000D01*
X212000Y199000D02*
X231000D01*
X81500Y209086D02*
Y253000D01*
Y209086D02*
X82086Y208500D01*
X161586Y138500D02*
X213500D01*
X166000Y114000D02*
X218000D01*
X213500Y138500D02*
X223500Y128500D01*
X161000Y139086D02*
Y186000D01*
Y139086D02*
X161586Y138500D01*
X218000Y114000D02*
X223500Y108500D01*
X229414Y331086D02*
Y331914D01*
Y331086D02*
X230000Y330500D01*
X229414Y331914D02*
X236000Y338500D01*
X230000Y330500D02*
X233000D01*
X226000Y331328D02*
X238719Y344047D01*
X308848Y405051D02*
X572385D01*
X238719Y344047D02*
X247844D01*
X308848Y405051D01*
X236000Y338500D02*
X246000D01*
X195000Y332000D02*
X217500D01*
X240828Y350500D02*
X243281Y352953D01*
X240000Y352500D02*
X246000Y358500D01*
X191000Y334828D02*
X206672Y350500D01*
X205843Y352500D02*
X240000D01*
X207500Y348500D02*
X246000D01*
X206672Y350500D02*
X240828D01*
X193414Y334414D02*
X207500Y348500D01*
X242000Y203000D02*
X253500Y191500D01*
X235000Y203000D02*
X242000D01*
X172414Y145086D02*
Y145914D01*
X218000Y191500D01*
X172414Y145086D02*
X175031Y142469D01*
X218000Y191500D02*
X253500D01*
X175031Y142469D02*
X219531D01*
X223500Y138500D01*
X189000Y149500D02*
X222500D01*
X223500Y148500D01*
X161000Y186000D02*
X173500Y198500D01*
X180500D01*
X95172Y213500D02*
X191922D01*
X236922Y258500D01*
X193414Y333586D02*
Y334414D01*
Y333586D02*
X195000Y332000D01*
X191000Y333172D02*
Y334828D01*
X243281Y352953D02*
X248480D01*
X130357Y325342D02*
X167967Y362953D01*
X113500Y325342D02*
X130357D01*
X167967Y362953D02*
X249574D01*
X193287Y247287D02*
X226000Y280000D01*
X169000Y247287D02*
X193287D01*
X236922Y258500D02*
X246000D01*
X57000Y277500D02*
X81500Y253000D01*
X199975Y294025D02*
X200475D01*
X197000Y297000D02*
X199975Y294025D01*
X88500Y289315D02*
X114000Y263815D01*
X88500Y289315D02*
Y312657D01*
X223000Y265500D02*
X226000Y268500D01*
X246000D01*
X190000Y290414D02*
X190586Y291000D01*
X191000D01*
X190000Y287500D02*
Y290414D01*
X191000Y291000D02*
X197000Y297000D01*
X169000Y266500D02*
X190000Y287500D01*
X386884Y281465D02*
X390012Y284592D01*
X245250Y324047D02*
X255250D01*
X241547Y320344D02*
X245250Y324047D01*
X241547Y306656D02*
Y320344D01*
X390012Y284592D02*
Y289015D01*
X368902Y312953D02*
X406248Y275606D01*
X276280Y318500D02*
X279827Y322047D01*
X275250Y312953D02*
X368902D01*
X276000Y318500D02*
X276280D01*
X279827Y322047D02*
X305047D01*
X305500Y322500D01*
X406248Y270346D02*
Y275606D01*
Y270346D02*
X406327Y270268D01*
X291328Y225500D02*
X295919Y220910D01*
X302902D01*
X57000Y287500D02*
X60449Y284051D01*
X47000Y287500D02*
X52449Y282051D01*
X60449Y284051D02*
X61501D01*
X290500Y223500D02*
X303000Y211000D01*
X59099Y318590D02*
X69902D01*
X96000Y215500D02*
X102747D01*
X94500Y217000D02*
X96000Y215500D01*
X102747D02*
X106562Y219315D01*
X115000D01*
X69902Y318590D02*
X75835Y312657D01*
X87413Y320590D02*
X102346Y305658D01*
X114000Y256000D02*
Y263815D01*
X608000Y334220D02*
X612453Y338673D01*
X249574Y362953D02*
X250453Y362074D01*
Y354926D02*
Y362074D01*
X608000Y334000D02*
Y334220D01*
X274156Y342953D02*
X318539D01*
X248480Y352953D02*
X250453Y354926D01*
X255250Y324047D02*
X274156Y342953D01*
X292953Y328500D02*
X293543Y329090D01*
X447590Y325909D02*
X465523Y343843D01*
X276000Y328500D02*
X292953D01*
X300555Y324047D02*
X303598Y327091D01*
X271547Y326656D02*
Y330344D01*
X307401Y327091D02*
X308583Y325909D01*
X465523Y343843D02*
X608000D01*
X325091Y332598D02*
Y336402D01*
X316008Y332500D02*
X318599Y329909D01*
X318539Y342953D02*
X325091Y336402D01*
X274156Y324047D02*
X300555D01*
X293543Y329090D02*
X308230D01*
X279451Y332500D02*
X316008D01*
X271547Y330344D02*
X274156Y332953D01*
X356909Y327909D02*
X429500Y400500D01*
X278999Y332953D02*
X279451Y332500D01*
X318599Y329909D02*
X322401D01*
X303598Y327091D02*
X307401D01*
X309411Y327909D02*
X356909D01*
X274156Y332953D02*
X278999D01*
X271547Y326656D02*
X274156Y324047D01*
X322401Y329909D02*
X325091Y332598D01*
X308583Y325909D02*
X447590D01*
X308230Y329090D02*
X309411Y327909D01*
X429500Y400500D02*
X570500D01*
X589324Y329738D02*
X603738D01*
X586000Y326414D02*
X589324Y329738D01*
X603738D02*
X608000Y334000D01*
X586000Y301842D02*
Y326414D01*
X565949Y394173D02*
X567725Y395949D01*
X565949Y386827D02*
X588544Y364232D01*
X593908D01*
X612453Y345687D01*
Y338673D02*
Y345687D01*
X572385Y395949D02*
X575051Y398615D01*
Y402385D01*
X570500Y385949D02*
Y390500D01*
X590217Y366232D02*
X594736D01*
X614453Y337844D02*
Y346515D01*
X567725Y395949D02*
X572385D01*
X565949Y386827D02*
Y394173D01*
X570500Y385949D02*
X590217Y366232D01*
X594736D02*
X614453Y346515D01*
X612453Y335844D02*
X614453Y337844D01*
X81157Y325000D02*
X88500Y332343D01*
X106500D01*
X113500Y325342D01*
X102346Y305658D02*
X113500D01*
X67000Y290000D02*
Y303000D01*
X61000Y309000D02*
Y314000D01*
Y309000D02*
X67000Y303000D01*
X222173Y68500D02*
X223500D01*
X139500Y66500D02*
X220173D01*
X222173Y68500D01*
X170000Y58500D02*
X223500D01*
X169750Y47750D02*
X222750D01*
X223500Y48500D01*
X169000Y47000D02*
X169750Y47750D01*
X177000Y26000D02*
X219703D01*
X222203Y28500D01*
X223500D01*
X200750Y18250D02*
X223250D01*
X223500Y18500D01*
X200500Y18000D02*
X200750Y18250D01*
X220173Y36500D02*
X222173Y38500D01*
X141500Y36500D02*
X220173D01*
X222173Y38500D02*
X223500D01*
X241547Y244047D02*
X246000Y248500D01*
X276000Y228500D02*
X297508D01*
X300508Y225500D01*
X301000D01*
X572385Y405051D02*
X575051Y402385D01*
X608000Y324158D02*
X612453Y328610D01*
Y335844D01*
X586000Y301842D02*
X612500Y275342D01*
X219914Y117914D02*
X220500Y118500D01*
X196500Y121000D02*
X216000D01*
X219086Y117914D02*
X219914D01*
X216000Y121000D02*
X219086Y117914D01*
X220500Y118500D02*
X223500D01*
X293750Y308250D02*
X294000Y308000D01*
X276250Y308250D02*
X293750D01*
X276000Y308500D02*
X276250Y308250D01*
X293598Y238500D02*
X296098Y241000D01*
X276000Y238500D02*
X293598D01*
X296098Y241000D02*
X297500D01*
X458744Y51500D02*
X463488D01*
X467577Y55589D01*
X448000Y47550D02*
Y55450D01*
X450000Y58379D02*
X450000Y58379D01*
X466609Y47500D02*
X469577Y50468D01*
X450050Y45500D02*
X467438D01*
X458744Y61500D02*
X465061D01*
X452000Y59500D02*
X453573Y61072D01*
X467577Y55589D02*
Y59157D01*
X450000Y57450D02*
Y58379D01*
X450000Y48379D02*
Y54621D01*
Y48379D02*
X450879Y47500D01*
X469577Y50468D02*
Y58328D01*
X448000Y47550D02*
X450050Y45500D01*
X471577Y49639D02*
Y57500D01*
X465061Y61500D02*
X465488Y61072D01*
X450879Y47500D02*
X466609D01*
X448000Y55450D02*
X450000Y57450D01*
X452000Y56621D02*
Y59500D01*
X467438Y45500D02*
X471577Y49639D01*
X450000Y54621D02*
X452000Y56621D01*
X471577Y57500D02*
X479235Y65158D01*
X500447D01*
X472789Y37500D02*
X500447Y65158D01*
X528500D01*
X458744Y121500D02*
X491843D01*
X459244Y81000D02*
X484000D01*
X458744Y81500D02*
X459244Y81000D01*
X450000Y64621D02*
X451294Y65915D01*
Y67085D01*
X450000Y58379D02*
Y64621D01*
X449366Y69013D02*
X451294Y67085D01*
X440695Y66061D02*
X446561D01*
X448000Y64621D01*
Y58379D02*
Y64621D01*
X445121Y55500D02*
X448000Y58379D01*
X439256Y67500D02*
X440695Y66061D01*
X431390Y55500D02*
X445121D01*
X449366Y69013D02*
Y73255D01*
X253500Y38500D02*
X414391D01*
X439256Y67500D02*
Y71500D01*
X447121Y75500D02*
X449366Y73255D01*
X414391Y38500D02*
X431390Y55500D01*
X375450Y60409D02*
X390541Y75500D01*
X447121D01*
X269660Y46409D02*
X419421D01*
X434512Y61500D01*
X439256D01*
X267569Y48500D02*
X269660Y46409D01*
X253500Y48500D02*
X267569D01*
X253590Y58410D02*
X273091D01*
X253500Y58500D02*
X253590Y58410D01*
X273091D02*
X280500Y51000D01*
X254250Y64047D02*
X257888Y60409D01*
X375450D01*
X448955Y89333D02*
Y103576D01*
X428391Y90500D02*
X431390Y87500D01*
X363384Y90500D02*
X428391D01*
X449561Y75939D02*
Y83061D01*
X447121Y85500D02*
X449561Y83061D01*
X253500Y88500D02*
X427562D01*
X449561Y75939D02*
X454000Y71500D01*
X458744D01*
X431390Y87500D02*
X447121D01*
X448955Y89333D01*
X427562Y88500D02*
X430562Y85500D01*
X325384Y128500D02*
X363384Y90500D01*
X430562Y85500D02*
X447121D01*
X446500Y37500D02*
X472789D01*
X439256Y44744D02*
X446500Y37500D01*
X439256Y44744D02*
Y51500D01*
X253500Y128500D02*
X325384D01*
X252750Y119250D02*
X253500Y118500D01*
X446682Y107061D02*
X448000Y108379D01*
X351810Y113500D02*
X437256D01*
X448000Y108379D02*
Y114621D01*
X249047Y126656D02*
X252750Y122953D01*
Y119250D02*
Y122953D01*
X431098Y104914D02*
Y105743D01*
X249047Y130344D02*
X251656Y132953D01*
X432416Y107061D02*
X446682D01*
X332357Y132953D02*
X351810Y113500D01*
X437256D02*
X439256Y111500D01*
X447121Y115500D02*
X448000Y114621D01*
X431098Y104914D02*
X434512Y101500D01*
X249047Y126656D02*
Y130344D01*
X431098Y105743D02*
X432416Y107061D01*
X251656Y132953D02*
X332357D01*
X448955Y103576D02*
X450917Y105538D01*
X458744Y107500D02*
Y111500D01*
X456782Y105538D02*
X458744Y107500D01*
X450917Y105538D02*
X456782D01*
X434512Y101500D02*
X439256D01*
X458744D02*
X463488D01*
X467488Y105500D01*
Y114621D01*
X247953Y64047D02*
X254250D01*
X223500Y88500D02*
X247953Y64047D01*
X275500Y68500D02*
X279000Y65000D01*
X253500Y68500D02*
X275500D01*
X166500Y95000D02*
X167869D01*
X171369Y98500D02*
X223500D01*
X167869Y95000D02*
X171369Y98500D01*
X458744Y91244D02*
X461000Y93500D01*
X472000D02*
X480500Y102000D01*
X461000Y93500D02*
X472000D01*
X458744Y91244D02*
Y91500D01*
X458500Y91000D02*
X458744Y91244D01*
X425012Y101000D02*
X434512Y91500D01*
X406000Y101000D02*
X425012D01*
X434512Y91500D02*
X439256D01*
X413000Y82000D02*
X438756D01*
X439256Y81500D01*
X262000Y10000D02*
X279000D01*
X253500Y18500D02*
X262000Y10000D01*
X253750Y28250D02*
X277750D01*
X278000Y28000D01*
X253500Y28500D02*
X253750Y28250D01*
X254827Y108500D02*
X256827Y110500D01*
X253500Y108500D02*
X254827D01*
X256827Y110500D02*
X289000D01*
X253500Y98500D02*
X254000Y99000D01*
X276000D02*
X276500Y99500D01*
X254000Y99000D02*
X276000D01*
X253500Y78500D02*
X253750Y78750D01*
X277250D02*
X277500Y79000D01*
X253750Y78750D02*
X277250D01*
X223250D02*
X223500Y78500D01*
X200000Y79000D02*
X200250Y78750D01*
X223250D01*
X627000Y270158D02*
Y279000D01*
X612500Y255658D02*
X627000Y270158D01*
X608000Y298000D02*
X627000Y279000D01*
X608000Y298000D02*
Y324158D01*
X436205Y286803D02*
X438902Y289500D01*
X406327Y286803D02*
X436205D01*
X438902Y289500D02*
X440000D01*
X276000Y338500D02*
X276280D01*
X280280Y334500D01*
X320500D01*
X115000Y239000D02*
X160713D01*
X169000Y247287D01*
X216500Y229000D02*
X245500D01*
X246000Y228500D01*
X216000Y229500D02*
X216500Y229000D01*
X75835Y312657D02*
X88500D01*
X57000Y287500D02*
X64500D01*
X67000Y290000D01*
X47000Y271000D02*
Y277500D01*
X45500Y269500D02*
X47000Y271000D01*
D15*
X87137Y430500D02*
D03*
X78863D02*
D03*
D17*
X612500Y255658D02*
D03*
X528500Y65158D02*
D03*
X113500Y305658D02*
D03*
D18*
X612500Y275342D02*
D03*
X528500Y84842D02*
D03*
X113500Y325342D02*
D03*
D19*
X58000Y429500D02*
D03*
X200000Y79000D02*
D03*
X484000Y81000D02*
D03*
X480500Y102000D02*
D03*
X413000Y82000D02*
D03*
X406000Y101000D02*
D03*
X170000Y58500D02*
D03*
X139500Y66500D02*
D03*
X280500Y51000D02*
D03*
X278000Y28000D02*
D03*
X279000Y10000D02*
D03*
X200500Y18000D02*
D03*
X177000Y26000D02*
D03*
X141500Y36500D02*
D03*
X169000Y47000D02*
D03*
X166500Y95000D02*
D03*
X166000Y114000D02*
D03*
X196500Y121000D02*
D03*
X189000Y149500D02*
D03*
X289000Y110500D02*
D03*
X276500Y99500D02*
D03*
X277500Y79000D02*
D03*
X279000Y65000D02*
D03*
X226000Y280000D02*
D03*
X440000Y289500D02*
D03*
X297500Y241000D02*
D03*
X301000Y225500D02*
D03*
X216000Y229500D02*
D03*
X61000Y314000D02*
D03*
X320500Y334500D02*
D03*
X305500Y322500D02*
D03*
X294000Y308000D02*
D03*
D20*
X144705Y434858D02*
D03*
D21*
X170295D02*
D03*
X144705Y417142D02*
D03*
X170295D02*
D03*
D31*
X169000Y247287D02*
D03*
X115000Y219315D02*
D03*
X114000Y263815D02*
D03*
X88500Y312657D02*
D03*
D32*
X169000Y266500D02*
D03*
Y256894D02*
D03*
X115000Y239000D02*
D03*
X114000Y283500D02*
D03*
X88500Y332343D02*
D03*
D34*
X439256Y121500D02*
D03*
Y111500D02*
D03*
Y101500D02*
D03*
Y91500D02*
D03*
Y81500D02*
D03*
Y71500D02*
D03*
Y61500D02*
D03*
Y51500D02*
D03*
X458744D02*
D03*
Y121500D02*
D03*
Y111500D02*
D03*
Y101500D02*
D03*
Y91500D02*
D03*
Y81500D02*
D03*
Y71500D02*
D03*
Y61500D02*
D03*
D35*
X608000Y324158D02*
D03*
D36*
Y334000D02*
D03*
Y343843D02*
D03*
X223500Y138500D02*
D03*
Y128500D02*
D03*
Y118500D02*
D03*
Y108500D02*
D03*
Y98500D02*
D03*
Y88500D02*
D03*
Y78500D02*
D03*
Y68500D02*
D03*
Y58500D02*
D03*
Y48500D02*
D03*
Y38500D02*
D03*
Y28500D02*
D03*
Y18500D02*
D03*
X253500Y148500D02*
D03*
Y138500D02*
D03*
Y128500D02*
D03*
Y118500D02*
D03*
Y108500D02*
D03*
Y98500D02*
D03*
Y88500D02*
D03*
Y78500D02*
D03*
Y68500D02*
D03*
Y58500D02*
D03*
Y48500D02*
D03*
Y38500D02*
D03*
Y28500D02*
D03*
Y18500D02*
D03*
X276000Y228500D02*
D03*
Y238500D02*
D03*
Y248500D02*
D03*
Y258500D02*
D03*
Y268500D02*
D03*
Y278500D02*
D03*
Y288500D02*
D03*
Y298500D02*
D03*
Y308500D02*
D03*
Y318500D02*
D03*
Y328500D02*
D03*
Y338500D02*
D03*
Y348500D02*
D03*
Y358500D02*
D03*
X246000Y228500D02*
D03*
Y238500D02*
D03*
Y248500D02*
D03*
Y258500D02*
D03*
Y268500D02*
D03*
Y278500D02*
D03*
Y288500D02*
D03*
Y298500D02*
D03*
Y308500D02*
D03*
Y318500D02*
D03*
Y328500D02*
D03*
Y338500D02*
D03*
Y348500D02*
D03*
D37*
X191500Y448000D02*
D03*
X530000Y137000D02*
D03*
X570500Y390500D02*
D03*
X47000Y325000D02*
D03*
X57000Y277500D02*
D03*
X343000Y375000D02*
D03*
D38*
X191500Y458000D02*
D03*
X530000Y147000D02*
D03*
Y157000D02*
D03*
X570500Y400500D02*
D03*
Y410500D02*
D03*
X47000Y335000D02*
D03*
Y297500D02*
D03*
Y287500D02*
D03*
X57000Y297500D02*
D03*
Y287500D02*
D03*
X47000Y277500D02*
D03*
X343000Y365000D02*
D03*
D39*
X406327Y270268D02*
D03*
Y253732D02*
D03*
Y237197D02*
D03*
X384673Y270268D02*
D03*
Y253732D02*
D03*
Y286803D02*
D03*
X406327D02*
D03*
D40*
X384673Y237197D02*
D03*
D41*
X223500Y148500D02*
D03*
X246000Y358500D02*
D03*
D42*
X111000Y370000D02*
D03*
X115000Y439000D02*
D03*
X260500Y466500D02*
D03*
X203500Y419500D02*
D03*
X143000Y252000D02*
D03*
X136000Y366500D02*
D03*
X367500Y271000D02*
D03*
X237500Y299000D02*
D03*
X238000Y286500D02*
D03*
X37500Y297000D02*
D03*
X22500Y297500D02*
D03*
X567000Y162000D02*
D03*
X556500Y199500D02*
D03*
X366500Y254000D02*
D03*
X365500Y186500D02*
D03*
X286000Y281500D02*
D03*
X289500Y300047D02*
D03*
X320000Y243000D02*
D03*
X233000Y330500D02*
D03*
X212000Y199000D02*
D03*
X217000Y332000D02*
D03*
X180500Y198500D02*
D03*
X223000Y264500D02*
D03*
X200475Y294025D02*
D03*
M02*
