G04*
G04 #@! TF.GenerationSoftware,Altium Limited,Altium Designer,21.4.1 (30)*
G04*
G04 Layer_Color=32896*
%FSLAX25Y25*%
%MOIN*%
G70*
G04*
G04 #@! TF.SameCoordinates,DDFDF5B1-8865-4846-A2A5-4ED5E6CA260E*
G04*
G04*
G04 #@! TF.FilePolarity,Positive*
G04*
G01*
G75*
%ADD11C,0.00787*%
D11*
X608957Y253000D02*
Y278000D01*
X616043D01*
Y253000D02*
Y278000D01*
X608957Y253000D02*
X616043D01*
X51602Y423850D02*
Y435150D01*
Y423850D02*
X64398D01*
Y435150D01*
X51602D02*
X64398D01*
X74519Y425563D02*
Y435437D01*
Y425563D02*
X91481D01*
Y435437D01*
X74519D02*
X91481D01*
X141279Y438776D02*
X173721D01*
Y413224D02*
Y438776D01*
X141279Y413224D02*
X173721D01*
X141279D02*
Y438776D01*
X193602Y84650D02*
X206398D01*
Y73350D02*
Y84650D01*
X193602Y73350D02*
X206398D01*
X193602D02*
Y84650D01*
X477602Y86650D02*
X490398D01*
Y75350D02*
Y86650D01*
X477602Y75350D02*
X490398D01*
X477602D02*
Y86650D01*
X474102Y107650D02*
X486898D01*
Y96350D02*
Y107650D01*
X474102Y96350D02*
X486898D01*
X474102D02*
Y107650D01*
X406602Y87650D02*
X419398D01*
Y76350D02*
Y87650D01*
X406602Y76350D02*
X419398D01*
X406602D02*
Y87650D01*
X399602Y106650D02*
X412398D01*
Y95350D02*
Y106650D01*
X399602Y95350D02*
X412398D01*
X399602D02*
Y106650D01*
X163602Y64150D02*
X176398D01*
Y52850D02*
Y64150D01*
X163602Y52850D02*
X176398D01*
X163602D02*
Y64150D01*
X133102Y72150D02*
X145898D01*
Y60850D02*
Y72150D01*
X133102Y60850D02*
X145898D01*
X133102D02*
Y72150D01*
X274102Y56650D02*
X286898D01*
Y45350D02*
Y56650D01*
X274102Y45350D02*
X286898D01*
X274102D02*
Y56650D01*
X271602Y33650D02*
X284398D01*
Y22350D02*
Y33650D01*
X271602Y22350D02*
X284398D01*
X271602D02*
Y33650D01*
X272602Y15650D02*
X285398D01*
Y4350D02*
Y15650D01*
X272602Y4350D02*
X285398D01*
X272602D02*
Y15650D01*
X194102Y23650D02*
X206898D01*
Y12350D02*
Y23650D01*
X194102Y12350D02*
X206898D01*
X194102D02*
Y23650D01*
X170602Y31650D02*
X183398D01*
Y20350D02*
Y31650D01*
X170602Y20350D02*
X183398D01*
X170602D02*
Y31650D01*
X135102Y42150D02*
X147898D01*
Y30850D02*
Y42150D01*
X135102Y30850D02*
X147898D01*
X135102D02*
Y42150D01*
X162602Y52650D02*
X175398D01*
Y41350D02*
Y52650D01*
X162602Y41350D02*
X175398D01*
X162602D02*
Y52650D01*
X160102Y100650D02*
X172898D01*
Y89350D02*
Y100650D01*
X160102Y89350D02*
X172898D01*
X160102D02*
Y100650D01*
X159602Y119650D02*
X172398D01*
Y108350D02*
Y119650D01*
X159602Y108350D02*
X172398D01*
X159602D02*
Y119650D01*
X190102Y126650D02*
X202898D01*
Y115350D02*
Y126650D01*
X190102Y115350D02*
X202898D01*
X190102D02*
Y126650D01*
X182602Y155150D02*
X195398D01*
Y143850D02*
Y155150D01*
X182602Y143850D02*
X195398D01*
X182602D02*
Y155150D01*
X282602Y116150D02*
X295398D01*
Y104850D02*
Y116150D01*
X282602Y104850D02*
X295398D01*
X282602D02*
Y116150D01*
X270102Y105150D02*
X282898D01*
Y93850D02*
Y105150D01*
X270102Y93850D02*
X282898D01*
X270102D02*
Y105150D01*
X271102Y84650D02*
X283898D01*
Y73350D02*
Y84650D01*
X271102Y73350D02*
X283898D01*
X271102D02*
Y84650D01*
X272602Y70650D02*
X285398D01*
Y59350D02*
Y70650D01*
X272602Y59350D02*
X285398D01*
X272602D02*
Y70650D01*
X219602Y285650D02*
X232398D01*
Y274350D02*
Y285650D01*
X219602Y274350D02*
X232398D01*
X219602D02*
Y285650D01*
X433602Y295150D02*
X446398D01*
Y283850D02*
Y295150D01*
X433602Y283850D02*
X446398D01*
X433602D02*
Y295150D01*
X291102Y246650D02*
X303898D01*
Y235350D02*
Y246650D01*
X291102Y235350D02*
X303898D01*
X291102D02*
Y246650D01*
X294602Y231150D02*
X307398D01*
Y219850D02*
Y231150D01*
X294602Y219850D02*
X307398D01*
X294602D02*
Y231150D01*
X209602Y235150D02*
X222398D01*
Y223850D02*
Y235150D01*
X209602Y223850D02*
X222398D01*
X209602D02*
Y235150D01*
X54602Y319650D02*
X67398D01*
Y308350D02*
Y319650D01*
X54602Y308350D02*
X67398D01*
X54602D02*
Y319650D01*
X314102Y340150D02*
X326898D01*
Y328850D02*
Y340150D01*
X314102Y328850D02*
X326898D01*
X314102D02*
Y340150D01*
X299102Y328150D02*
X311898D01*
Y316850D02*
Y328150D01*
X299102Y316850D02*
X311898D01*
X299102D02*
Y328150D01*
X287602Y313650D02*
X300398D01*
Y302350D02*
Y313650D01*
X287602Y302350D02*
X300398D01*
X287602D02*
Y313650D01*
X524957Y62500D02*
Y87500D01*
X532043D01*
Y62500D02*
Y87500D01*
X524957Y62500D02*
X532043D01*
X109685Y216559D02*
Y241756D01*
X120315D01*
Y216559D02*
Y241756D01*
X109685Y216559D02*
X120315D01*
X108685Y261059D02*
Y286256D01*
X119315D01*
Y261059D02*
Y286256D01*
X108685Y261059D02*
X119315D01*
X109957Y303000D02*
Y328000D01*
X117043D01*
Y303000D02*
Y328000D01*
X109957Y303000D02*
X117043D01*
X83185Y309902D02*
Y335098D01*
X93815D01*
Y309902D02*
Y335098D01*
X83185Y309902D02*
X93815D01*
M02*
