G04*
G04 #@! TF.GenerationSoftware,Altium Limited,Altium Designer,21.4.1 (30)*
G04*
G04 Layer_Color=16711935*
%FSLAX25Y25*%
%MOIN*%
G70*
G04*
G04 #@! TF.SameCoordinates,DDA1B4C3-BA79-4B98-AE68-5F17814B577F*
G04*
G04*
G04 #@! TF.FilePolarity,Positive*
G04*
G01*
G75*
%ADD43C,0.00394*%
D43*
X229839Y149445D02*
X229575Y150429D01*
X228854Y151150D01*
X227870Y151413D01*
X226886Y151150D01*
X226165Y150429D01*
X225902Y149445D01*
X226165Y148461D01*
X226886Y147740D01*
X227870Y147476D01*
X228854Y147740D01*
X229575Y148461D01*
X229839Y149445D01*
X252339Y359445D02*
X252075Y360429D01*
X251354Y361150D01*
X250370Y361413D01*
X249386Y361150D01*
X248665Y360429D01*
X248402Y359445D01*
X248665Y358461D01*
X249386Y357740D01*
X250370Y357476D01*
X251354Y357740D01*
X252075Y358461D01*
X252339Y359445D01*
X159158Y237799D02*
X159316Y236795D01*
X159778Y235890D01*
X160496Y235172D01*
X161402Y234710D01*
X162406Y234551D01*
X175594Y234551D02*
X176598Y234710D01*
X177504Y235172D01*
X178222Y235890D01*
X178683Y236795D01*
X178842Y237799D01*
Y275988D02*
X178683Y276992D01*
X178222Y277897D01*
X177504Y278616D01*
X176598Y279077D01*
X175594Y279236D01*
X162406Y279236D02*
X161402Y279077D01*
X160496Y278616D01*
X159778Y277897D01*
X159316Y276992D01*
X159158Y275988D01*
X163488Y277563D02*
X162504Y277299D01*
X161783Y276579D01*
X161520Y275594D01*
X174512Y236224D02*
X175496Y236488D01*
X176217Y237209D01*
X176480Y238193D01*
Y275594D02*
X176217Y276579D01*
X175496Y277299D01*
X174512Y277563D01*
X161520Y238193D02*
X161783Y237209D01*
X162504Y236488D01*
X163488Y236224D01*
X600126Y311165D02*
Y356835D01*
X615874D01*
Y311165D02*
Y356835D01*
X600126Y311165D02*
X615874D01*
X186500Y463748D02*
X196500D01*
Y442252D02*
Y463748D01*
X186500Y442252D02*
X196500D01*
X186500D02*
Y463748D01*
X525000Y131252D02*
Y162748D01*
Y131252D02*
X535000D01*
Y162748D01*
X525000D02*
X535000D01*
X565500Y384752D02*
Y416248D01*
Y384752D02*
X575500D01*
Y416248D01*
X565500D02*
X575500D01*
X42000Y340748D02*
X52000D01*
Y319252D02*
Y340748D01*
X42000Y319252D02*
X52000D01*
X42000D02*
Y340748D01*
X414004Y269087D02*
X420303D01*
X414004Y254913D02*
X420303D01*
Y269087D01*
X375421Y223417D02*
X414004D01*
Y300583D01*
X375421D02*
X414004D01*
X375421Y223417D02*
Y300583D01*
X224327Y14012D02*
Y152988D01*
X252673Y14012D02*
Y152988D01*
X224327D02*
X252673D01*
X224327Y14012D02*
X252673D01*
X246827Y224012D02*
X275173D01*
X246827Y362988D02*
X275173D01*
Y224012D02*
Y362988D01*
X246827Y224012D02*
Y362988D01*
X439000Y46500D02*
Y126500D01*
Y46500D02*
X459000D01*
Y126500D01*
X439000D02*
X459000D01*
X42000Y302500D02*
X62000D01*
Y272500D02*
Y302500D01*
X42000Y272500D02*
Y302500D01*
Y272500D02*
X62000D01*
X162406Y279236D02*
X175594D01*
X178842Y237799D02*
Y275988D01*
X159158Y237799D02*
Y275988D01*
X162406Y234551D02*
X175594D01*
X176480Y238193D02*
Y275594D01*
X163488Y277563D02*
X174512D01*
X163488Y236224D02*
X174512D01*
X161520Y238193D02*
Y275594D01*
X338000Y359252D02*
X348000D01*
X338000D02*
Y380748D01*
X348000D01*
Y359252D02*
Y380748D01*
M02*
