G04*
G04 #@! TF.GenerationSoftware,Altium Limited,Altium Designer,21.4.1 (30)*
G04*
G04 Layer_Color=32768*
%FSLAX25Y25*%
%MOIN*%
G70*
G04*
G04 #@! TF.SameCoordinates,DDA1B4C3-BA79-4B98-AE68-5F17814B577F*
G04*
G04*
G04 #@! TF.FilePolarity,Positive*
G04*
G01*
G75*
%ADD43C,0.00394*%
%ADD44C,0.00197*%
D43*
X606032Y334000D02*
X609969D01*
X608000Y332031D02*
Y335968D01*
X395500Y260032D02*
Y263968D01*
X393531Y262000D02*
X397468D01*
X236531Y83500D02*
X240469D01*
X238500Y81532D02*
Y85469D01*
X261000Y291531D02*
Y295468D01*
X259032Y293500D02*
X262968D01*
X449000Y84531D02*
Y88468D01*
X447031Y86500D02*
X450969D01*
X50032Y287500D02*
X53969D01*
X52000Y285531D02*
Y289469D01*
X167032Y256894D02*
X170968D01*
X169000Y254925D02*
Y258862D01*
D44*
X175988Y234157D02*
X177043Y234387D01*
X177975Y234931D01*
X178694Y235737D01*
X179128Y236725D01*
X179236Y237799D01*
Y275988D02*
X179128Y277062D01*
X178694Y278051D01*
X177975Y278856D01*
X177043Y279400D01*
X175988Y279630D01*
X162012D02*
X160957Y279400D01*
X160025Y278856D01*
X159306Y278051D01*
X158872Y277062D01*
X158764Y275988D01*
Y237405D02*
X158923Y236402D01*
X159384Y235496D01*
X160103Y234778D01*
X161008Y234316D01*
X162012Y234157D01*
X599732Y310772D02*
Y357228D01*
X616268D01*
Y310772D02*
Y357228D01*
X599732Y310772D02*
X616268D01*
X185614Y464634D02*
X197386D01*
Y441366D02*
Y464634D01*
X185614Y441366D02*
X197386D01*
X185614D02*
Y464634D01*
X524114Y130366D02*
Y163634D01*
Y130366D02*
X535886D01*
Y163634D01*
X524114D02*
X535886D01*
X564614Y383866D02*
Y417134D01*
Y383866D02*
X576386D01*
Y417134D01*
X564614D02*
X576386D01*
X41114Y341634D02*
X52886D01*
Y318366D02*
Y341634D01*
X41114Y318366D02*
X52886D01*
X41114D02*
Y341634D01*
X375028Y223024D02*
X420697D01*
X375028D02*
Y300976D01*
X420697D01*
Y223024D02*
Y300976D01*
X466480Y45614D02*
Y127386D01*
X431520D02*
X466480D01*
X431520Y45614D02*
X466480D01*
X431520D02*
Y127386D01*
X41606Y302894D02*
X62394D01*
Y272106D02*
Y302894D01*
X41606Y272106D02*
Y302894D01*
Y272106D02*
X62394D01*
X162012Y234157D02*
X175988D01*
X158764Y237799D02*
Y275988D01*
X179236Y237799D02*
Y275988D01*
X162012Y279630D02*
X175988D01*
X337114Y358366D02*
X348886D01*
X337114D02*
Y381634D01*
X348886D01*
Y358366D02*
Y381634D01*
M02*
