G04*
G04 #@! TF.GenerationSoftware,Altium Limited,Altium Designer,21.4.1 (30)*
G04*
G04 Layer_Color=8388736*
%FSLAX25Y25*%
%MOIN*%
G70*
G04*
G04 #@! TF.SameCoordinates,DDA1B4C3-BA79-4B98-AE68-5F17814B577F*
G04*
G04*
G04 #@! TF.FilePolarity,Negative*
G04*
G01*
G75*
%ADD15R,0.04750X0.05938*%
%ADD16R,0.15288X0.05800*%
%ADD17R,0.04528X0.04528*%
%ADD18C,0.04528*%
%ADD19C,0.06181*%
%ADD20R,0.06063X0.06063*%
%ADD21C,0.06063*%
%ADD22R,0.06706X0.06706*%
%ADD23C,0.06706*%
%ADD24R,0.06902X0.06902*%
%ADD25C,0.06902*%
%ADD26C,0.08477*%
%ADD27R,0.08477X0.08477*%
%ADD28R,0.06706X0.06706*%
%ADD29C,0.05524*%
%ADD30R,0.05524X0.05524*%
%ADD31R,0.04724X0.04724*%
%ADD32C,0.04724*%
%ADD33C,0.05800*%
D15*
X87137Y430500D02*
D03*
X78863D02*
D03*
D16*
X439256Y121500D02*
D03*
Y111500D02*
D03*
Y101500D02*
D03*
Y91500D02*
D03*
Y81500D02*
D03*
Y71500D02*
D03*
Y61500D02*
D03*
Y51500D02*
D03*
X458744D02*
D03*
Y121500D02*
D03*
Y111500D02*
D03*
Y101500D02*
D03*
Y91500D02*
D03*
Y81500D02*
D03*
Y71500D02*
D03*
Y61500D02*
D03*
D17*
X612500Y255658D02*
D03*
X528500Y65158D02*
D03*
X113500Y305658D02*
D03*
D18*
X612500Y275342D02*
D03*
X528500Y84842D02*
D03*
X113500Y325342D02*
D03*
D19*
X58000Y429500D02*
D03*
X200000Y79000D02*
D03*
X484000Y81000D02*
D03*
X480500Y102000D02*
D03*
X413000Y82000D02*
D03*
X406000Y101000D02*
D03*
X170000Y58500D02*
D03*
X139500Y66500D02*
D03*
X280500Y51000D02*
D03*
X278000Y28000D02*
D03*
X279000Y10000D02*
D03*
X200500Y18000D02*
D03*
X177000Y26000D02*
D03*
X141500Y36500D02*
D03*
X169000Y47000D02*
D03*
X166500Y95000D02*
D03*
X166000Y114000D02*
D03*
X196500Y121000D02*
D03*
X189000Y149500D02*
D03*
X289000Y110500D02*
D03*
X276500Y99500D02*
D03*
X277500Y79000D02*
D03*
X279000Y65000D02*
D03*
X226000Y280000D02*
D03*
X440000Y289500D02*
D03*
X297500Y241000D02*
D03*
X301000Y225500D02*
D03*
X216000Y229500D02*
D03*
X61000Y314000D02*
D03*
X320500Y334500D02*
D03*
X305500Y322500D02*
D03*
X294000Y308000D02*
D03*
D20*
X144705Y434858D02*
D03*
D21*
X170295D02*
D03*
X144705Y417142D02*
D03*
X170295D02*
D03*
D22*
X608000Y324158D02*
D03*
D23*
Y334000D02*
D03*
Y343843D02*
D03*
X223500Y138500D02*
D03*
Y128500D02*
D03*
Y118500D02*
D03*
Y108500D02*
D03*
Y98500D02*
D03*
Y88500D02*
D03*
Y78500D02*
D03*
Y68500D02*
D03*
Y58500D02*
D03*
Y48500D02*
D03*
Y38500D02*
D03*
Y28500D02*
D03*
Y18500D02*
D03*
X253500Y148500D02*
D03*
Y138500D02*
D03*
Y128500D02*
D03*
Y118500D02*
D03*
Y108500D02*
D03*
Y98500D02*
D03*
Y88500D02*
D03*
Y78500D02*
D03*
Y68500D02*
D03*
Y58500D02*
D03*
Y48500D02*
D03*
Y38500D02*
D03*
Y28500D02*
D03*
Y18500D02*
D03*
X276000Y228500D02*
D03*
Y238500D02*
D03*
Y248500D02*
D03*
Y258500D02*
D03*
Y268500D02*
D03*
Y278500D02*
D03*
Y288500D02*
D03*
Y298500D02*
D03*
Y308500D02*
D03*
Y318500D02*
D03*
Y328500D02*
D03*
Y338500D02*
D03*
Y348500D02*
D03*
Y358500D02*
D03*
X246000Y228500D02*
D03*
Y238500D02*
D03*
Y248500D02*
D03*
Y258500D02*
D03*
Y268500D02*
D03*
Y278500D02*
D03*
Y288500D02*
D03*
Y298500D02*
D03*
Y308500D02*
D03*
Y318500D02*
D03*
Y328500D02*
D03*
Y338500D02*
D03*
Y348500D02*
D03*
D24*
X191500Y448000D02*
D03*
X530000Y137000D02*
D03*
X570500Y390500D02*
D03*
X47000Y325000D02*
D03*
X57000Y277500D02*
D03*
X343000Y375000D02*
D03*
D25*
X191500Y458000D02*
D03*
X530000Y147000D02*
D03*
Y157000D02*
D03*
X570500Y400500D02*
D03*
Y410500D02*
D03*
X47000Y335000D02*
D03*
Y297500D02*
D03*
Y287500D02*
D03*
X57000Y297500D02*
D03*
Y287500D02*
D03*
X47000Y277500D02*
D03*
X343000Y365000D02*
D03*
D26*
X406327Y270268D02*
D03*
Y253732D02*
D03*
Y237197D02*
D03*
X384673Y270268D02*
D03*
Y253732D02*
D03*
Y286803D02*
D03*
X406327D02*
D03*
D27*
X384673Y237197D02*
D03*
D28*
X223500Y148500D02*
D03*
X246000Y358500D02*
D03*
D29*
X169000Y266500D02*
D03*
Y256894D02*
D03*
D30*
Y247287D02*
D03*
D31*
X115000Y219315D02*
D03*
X114000Y263815D02*
D03*
X88500Y312657D02*
D03*
D32*
X115000Y239000D02*
D03*
X114000Y283500D02*
D03*
X88500Y332343D02*
D03*
D33*
X111000Y370000D02*
D03*
X115000Y439000D02*
D03*
X260500Y466500D02*
D03*
X203500Y419500D02*
D03*
X143000Y252000D02*
D03*
X136000Y366500D02*
D03*
X367500Y271000D02*
D03*
X237500Y299000D02*
D03*
X238000Y286500D02*
D03*
X37500Y297000D02*
D03*
X22500Y297500D02*
D03*
X567000Y162000D02*
D03*
X556500Y199500D02*
D03*
X366500Y254000D02*
D03*
X365500Y186500D02*
D03*
X286000Y281500D02*
D03*
X289500Y300047D02*
D03*
X320000Y243000D02*
D03*
X233000Y330500D02*
D03*
X212000Y199000D02*
D03*
X217000Y332000D02*
D03*
X180500Y198500D02*
D03*
X223000Y264500D02*
D03*
X200475Y294025D02*
D03*
M02*
