G04*
G04 #@! TF.GenerationSoftware,Altium Limited,Altium Designer,21.4.1 (30)*
G04*
G04 Layer_Color=8388736*
%FSLAX25Y25*%
%MOIN*%
G70*
G04*
G04 #@! TF.SameCoordinates,DDFDF5B1-8865-4846-A2A5-4ED5E6CA260E*
G04*
G04*
G04 #@! TF.FilePolarity,Positive*
G04*
G01*
G75*
%ADD11C,0.00787*%
D11*
X609350Y258413D02*
Y272587D01*
X615650D01*
Y258413D02*
Y272587D01*
X609350Y258413D02*
X615650D01*
X51996Y424244D02*
Y434756D01*
Y424244D02*
X64004D01*
Y434756D01*
X51996D02*
X64004D01*
X79063Y428039D02*
Y432961D01*
Y428039D02*
X86937D01*
Y432961D01*
X79063D02*
X86937D01*
X145118Y438382D02*
X169882D01*
Y413618D02*
Y438382D01*
X145118Y413618D02*
X169882D01*
X145118D02*
Y438382D01*
X193996Y84256D02*
X206004D01*
Y73744D02*
Y84256D01*
X193996Y73744D02*
X206004D01*
X193996D02*
Y84256D01*
X477996Y86256D02*
X490004D01*
Y75744D02*
Y86256D01*
X477996Y75744D02*
X490004D01*
X477996D02*
Y86256D01*
X474496Y107256D02*
X486504D01*
Y96744D02*
Y107256D01*
X474496Y96744D02*
X486504D01*
X474496D02*
Y107256D01*
X406996Y87256D02*
X419004D01*
Y76744D02*
Y87256D01*
X406996Y76744D02*
X419004D01*
X406996D02*
Y87256D01*
X399996Y106256D02*
X412004D01*
Y95744D02*
Y106256D01*
X399996Y95744D02*
X412004D01*
X399996D02*
Y106256D01*
X163996Y63756D02*
X176004D01*
Y53244D02*
Y63756D01*
X163996Y53244D02*
X176004D01*
X163996D02*
Y63756D01*
X133496Y71756D02*
X145504D01*
Y61244D02*
Y71756D01*
X133496Y61244D02*
X145504D01*
X133496D02*
Y71756D01*
X274496Y56256D02*
X286504D01*
Y45744D02*
Y56256D01*
X274496Y45744D02*
X286504D01*
X274496D02*
Y56256D01*
X271996Y33256D02*
X284004D01*
Y22744D02*
Y33256D01*
X271996Y22744D02*
X284004D01*
X271996D02*
Y33256D01*
X272996Y15256D02*
X285004D01*
Y4744D02*
Y15256D01*
X272996Y4744D02*
X285004D01*
X272996D02*
Y15256D01*
X194496Y23256D02*
X206504D01*
Y12744D02*
Y23256D01*
X194496Y12744D02*
X206504D01*
X194496D02*
Y23256D01*
X170996Y31256D02*
X183004D01*
Y20744D02*
Y31256D01*
X170996Y20744D02*
X183004D01*
X170996D02*
Y31256D01*
X135496Y41756D02*
X147504D01*
Y31244D02*
Y41756D01*
X135496Y31244D02*
X147504D01*
X135496D02*
Y41756D01*
X162996Y52256D02*
X175004D01*
Y41744D02*
Y52256D01*
X162996Y41744D02*
X175004D01*
X162996D02*
Y52256D01*
X160496Y100256D02*
X172504D01*
Y89744D02*
Y100256D01*
X160496Y89744D02*
X172504D01*
X160496D02*
Y100256D01*
X159996Y119256D02*
X172004D01*
Y108744D02*
Y119256D01*
X159996Y108744D02*
X172004D01*
X159996D02*
Y119256D01*
X190496Y126256D02*
X202504D01*
Y115744D02*
Y126256D01*
X190496Y115744D02*
X202504D01*
X190496D02*
Y126256D01*
X182996Y154756D02*
X195004D01*
Y144244D02*
Y154756D01*
X182996Y144244D02*
X195004D01*
X182996D02*
Y154756D01*
X282996Y115756D02*
X295004D01*
Y105244D02*
Y115756D01*
X282996Y105244D02*
X295004D01*
X282996D02*
Y115756D01*
X270496Y104756D02*
X282504D01*
Y94244D02*
Y104756D01*
X270496Y94244D02*
X282504D01*
X270496D02*
Y104756D01*
X271496Y84256D02*
X283504D01*
Y73744D02*
Y84256D01*
X271496Y73744D02*
X283504D01*
X271496D02*
Y84256D01*
X272996Y70256D02*
X285004D01*
Y59744D02*
Y70256D01*
X272996Y59744D02*
X285004D01*
X272996D02*
Y70256D01*
X219996Y285256D02*
X232004D01*
Y274744D02*
Y285256D01*
X219996Y274744D02*
X232004D01*
X219996D02*
Y285256D01*
X433996Y294756D02*
X446004D01*
Y284244D02*
Y294756D01*
X433996Y284244D02*
X446004D01*
X433996D02*
Y294756D01*
X291496Y246256D02*
X303504D01*
Y235744D02*
Y246256D01*
X291496Y235744D02*
X303504D01*
X291496D02*
Y246256D01*
X294996Y230756D02*
X307004D01*
Y220244D02*
Y230756D01*
X294996Y220244D02*
X307004D01*
X294996D02*
Y230756D01*
X209996Y234756D02*
X222004D01*
Y224244D02*
Y234756D01*
X209996Y224244D02*
X222004D01*
X209996D02*
Y234756D01*
X54996Y319256D02*
X67004D01*
Y308744D02*
Y319256D01*
X54996Y308744D02*
X67004D01*
X54996D02*
Y319256D01*
X314496Y339756D02*
X326504D01*
Y329244D02*
Y339756D01*
X314496Y329244D02*
X326504D01*
X314496D02*
Y339756D01*
X299496Y327756D02*
X311504D01*
Y317244D02*
Y327756D01*
X299496Y317244D02*
X311504D01*
X299496D02*
Y327756D01*
X287996Y313256D02*
X300004D01*
Y302744D02*
Y313256D01*
X287996Y302744D02*
X300004D01*
X287996D02*
Y313256D01*
X525350Y67913D02*
Y82087D01*
X531650D01*
Y67913D02*
Y82087D01*
X525350Y67913D02*
X531650D01*
X110079Y222071D02*
Y236244D01*
X119921D01*
Y222071D02*
Y236244D01*
X110079Y222071D02*
X119921D01*
X109079Y266571D02*
Y280744D01*
X118921D01*
Y266571D02*
Y280744D01*
X109079Y266571D02*
X118921D01*
X110350Y308413D02*
Y322587D01*
X116650D01*
Y308413D02*
Y322587D01*
X110350Y308413D02*
X116650D01*
X83579Y315413D02*
Y329587D01*
X93421D01*
Y315413D02*
Y329587D01*
X83579Y315413D02*
X93421D01*
M02*
